<svg width="26" height="26" viewBox="0 0 26 26" fill="none" xmlns="http://www.w3.org/2000/svg">
<path d="M22.4553 16.5454V18.909H7.09171V17.7272H5.90989V12.9999H4.72807V9.45449H3.54625V3.5454H1.18262V1.18176H5.90989V4.72722H24.819V9.45449H23.6372V12.9999H22.4553V14.1818H8.27353V16.5454H22.4553ZM5.90989 8.27267H7.09171V11.8181H21.2735V8.27267H22.4553V7.09085H5.90989V8.27267ZM8.27353 20.0909H10.6372V21.2727H11.819V23.6363H10.6372V24.8181H8.27353V23.6363H7.09171V21.2727H8.27353V20.0909ZM17.7281 20.0909H20.0917V21.2727H21.2735V23.6363H20.0917V24.8181H17.7281V23.6363H16.5463V21.2727H17.7281V20.0909Z" fill="#4A4A4A"/>
</svg>
