<svg width="68" height="68" viewBox="0 0 68 68" fill="none" xmlns="http://www.w3.org/2000/svg">
<rect width="68" height="68" rx="10" fill="url(#paint0_linear_61_648)"/>
<path d="M19.7563 15.8327H23.6999C23.7359 15.8327 23.754 15.8327 23.754 15.8327C23.754 15.8327 23.754 15.8507 23.754 15.8867V19.8304C23.754 19.8664 23.754 19.8844 23.754 19.8844C23.754 19.8844 23.7359 19.8844 23.6999 19.8844H19.7563C19.7203 19.8844 19.7023 19.8844 19.7023 19.8844C19.7023 19.8844 19.7023 19.8664 19.7023 19.8304V15.8867C19.7023 15.8507 19.7023 15.8327 19.7023 15.8327C19.7023 15.8327 19.7203 15.8327 19.7563 15.8327ZM25.1585 15.8327H29.1022C29.1382 15.8327 29.1562 15.8327 29.1562 15.8327C29.1562 15.8327 29.1562 15.8507 29.1562 15.8867V19.8304C29.1562 19.8664 29.1562 19.8844 29.1562 19.8844C29.1562 19.8844 29.1382 19.8844 29.1022 19.8844H25.1585C25.1225 19.8844 25.1045 19.8844 25.1045 19.8844C25.1045 19.8844 25.1045 19.8664 25.1045 19.8304V15.8867C25.1045 15.8507 25.1045 15.8327 25.1045 15.8327C25.1045 15.8327 25.1225 15.8327 25.1585 15.8327ZM30.5608 15.8327H34.5044C34.5404 15.8327 34.5584 15.8327 34.5584 15.8327C34.5584 15.8327 34.5584 15.8507 34.5584 15.8867V19.8304C34.5584 19.8664 34.5584 19.8844 34.5584 19.8844C34.5584 19.8844 34.5404 19.8844 34.5044 19.8844H30.5608C30.5247 19.8844 30.5067 19.8844 30.5067 19.8844C30.5067 19.8844 30.5067 19.8664 30.5067 19.8304V15.8867C30.5067 15.8507 30.5067 15.8327 30.5067 15.8327C30.5067 15.8327 30.5247 15.8327 30.5608 15.8327ZM35.963 15.8327H39.9066C39.9426 15.8327 39.9606 15.8327 39.9606 15.8327C39.9606 15.8327 39.9606 15.8507 39.9606 15.8867V19.8304C39.9606 19.8664 39.9606 19.8844 39.9606 19.8844C39.9606 19.8844 39.9426 19.8844 39.9066 19.8844H35.963C35.927 19.8844 35.909 19.8844 35.909 19.8844C35.909 19.8844 35.909 19.8664 35.909 19.8304V15.8867C35.909 15.8507 35.909 15.8327 35.909 15.8327C35.909 15.8327 35.927 15.8327 35.963 15.8327ZM41.3652 15.8327H45.3088C45.3448 15.8327 45.3628 15.8327 45.3628 15.8327C45.3628 15.8327 45.3628 15.8507 45.3628 15.8867V19.8304C45.3628 19.8664 45.3628 19.8844 45.3628 19.8844C45.3628 19.8844 45.3448 19.8844 45.3088 19.8844H41.3652C41.3292 19.8844 41.3112 19.8844 41.3112 19.8844C41.3112 19.8844 41.3112 19.8664 41.3112 19.8304V15.8867C41.3112 15.8507 41.3112 15.8327 41.3112 15.8327C41.3112 15.8327 41.3292 15.8327 41.3652 15.8327ZM41.3652 21.2349H45.3088C45.3448 21.2349 45.3628 21.2349 45.3628 21.2349C45.3628 21.2349 45.3628 21.2529 45.3628 21.289V25.2326C45.3628 25.2686 45.3628 25.2866 45.3628 25.2866C45.3628 25.2866 45.3448 25.2866 45.3088 25.2866H41.3652C41.3292 25.2866 41.3112 25.2866 41.3112 25.2866C41.3112 25.2866 41.3112 25.2686 41.3112 25.2326V21.289C41.3112 21.2529 41.3112 21.2349 41.3112 21.2349C41.3112 21.2349 41.3292 21.2349 41.3652 21.2349ZM35.963 26.6372H39.9066C39.9426 26.6372 39.9606 26.6372 39.9606 26.6372C39.9606 26.6372 39.9606 26.6552 39.9606 26.6912V30.6348C39.9606 30.6708 39.9606 30.6888 39.9606 30.6888C39.9606 30.6888 39.9426 30.6888 39.9066 30.6888H35.963C35.927 30.6888 35.909 30.6888 35.909 30.6888C35.909 30.6888 35.909 30.6708 35.909 30.6348V26.6912C35.909 26.6552 35.909 26.6372 35.909 26.6372C35.909 26.6372 35.927 26.6372 35.963 26.6372ZM30.5608 32.0394H34.5044C34.5404 32.0394 34.5584 32.0394 34.5584 32.0394C34.5584 32.0394 34.5584 32.0574 34.5584 32.0934V36.037C34.5584 36.073 34.5584 36.091 34.5584 36.091C34.5584 36.091 34.5404 36.091 34.5044 36.091H30.5608C30.5247 36.091 30.5067 36.091 30.5067 36.091C30.5067 36.091 30.5067 36.073 30.5067 36.037V32.0934C30.5067 32.0574 30.5067 32.0394 30.5067 32.0394C30.5067 32.0394 30.5247 32.0394 30.5608 32.0394ZM25.1585 37.4416H29.1022C29.1382 37.4416 29.1562 37.4416 29.1562 37.4416C29.1562 37.4416 29.1562 37.4596 29.1562 37.4956V41.4392C29.1562 41.4753 29.1562 41.4933 29.1562 41.4933C29.1562 41.4933 29.1382 41.4933 29.1022 41.4933H25.1585C25.1225 41.4933 25.1045 41.4933 25.1045 41.4933C25.1045 41.4933 25.1045 41.4753 25.1045 41.4392V37.4956C25.1045 37.4596 25.1045 37.4416 25.1045 37.4416C25.1045 37.4416 25.1225 37.4416 25.1585 37.4416ZM19.7563 42.8438H23.6999C23.7359 42.8438 23.754 42.8438 23.754 42.8438C23.754 42.8438 23.754 42.8618 23.754 42.8978V46.8415C23.754 46.8775 23.754 46.8955 23.754 46.8955C23.754 46.8955 23.7359 46.8955 23.6999 46.8955H19.7563C19.7203 46.8955 19.7023 46.8955 19.7023 46.8955C19.7023 46.8955 19.7023 46.8775 19.7023 46.8415V42.8978C19.7023 42.8618 19.7023 42.8438 19.7023 42.8438C19.7023 42.8438 19.7203 42.8438 19.7563 42.8438ZM19.7563 48.246H23.6999C23.7359 48.246 23.754 48.246 23.754 48.246C23.754 48.246 23.754 48.2641 23.754 48.3001V52.2437C23.754 52.2797 23.754 52.2977 23.754 52.2977C23.754 52.2977 23.7359 52.2977 23.6999 52.2977H19.7563C19.7203 52.2977 19.7023 52.2977 19.7023 52.2977C19.7023 52.2977 19.7023 52.2797 19.7023 52.2437V48.3001C19.7023 48.2641 19.7023 48.246 19.7023 48.246C19.7023 48.246 19.7203 48.246 19.7563 48.246ZM25.1585 48.246H29.1022C29.1382 48.246 29.1562 48.246 29.1562 48.246C29.1562 48.246 29.1562 48.2641 29.1562 48.3001V52.2437C29.1562 52.2797 29.1562 52.2977 29.1562 52.2977C29.1562 52.2977 29.1382 52.2977 29.1022 52.2977H25.1585C25.1225 52.2977 25.1045 52.2977 25.1045 52.2977C25.1045 52.2977 25.1045 52.2797 25.1045 52.2437V48.3001C25.1045 48.2641 25.1045 48.246 25.1045 48.246C25.1045 48.246 25.1225 48.246 25.1585 48.246ZM30.5608 48.246H34.5044C34.5404 48.246 34.5584 48.246 34.5584 48.246C34.5584 48.246 34.5584 48.2641 34.5584 48.3001V52.2437C34.5584 52.2797 34.5584 52.2977 34.5584 52.2977C34.5584 52.2977 34.5404 52.2977 34.5044 52.2977H30.5608C30.5247 52.2977 30.5067 52.2977 30.5067 52.2977C30.5067 52.2977 30.5067 52.2797 30.5067 52.2437V48.3001C30.5067 48.2641 30.5067 48.246 30.5067 48.246C30.5067 48.246 30.5247 48.246 30.5608 48.246ZM35.963 48.246H39.9066C39.9426 48.246 39.9606 48.246 39.9606 48.246C39.9606 48.246 39.9606 48.2641 39.9606 48.3001V52.2437C39.9606 52.2797 39.9606 52.2977 39.9606 52.2977C39.9606 52.2977 39.9426 52.2977 39.9066 52.2977H35.963C35.927 52.2977 35.909 52.2977 35.909 52.2977C35.909 52.2977 35.909 52.2797 35.909 52.2437V48.3001C35.909 48.2641 35.909 48.246 35.909 48.246C35.909 48.246 35.927 48.246 35.963 48.246ZM41.3652 48.246H45.3088C45.3448 48.246 45.3628 48.246 45.3628 48.246C45.3628 48.246 45.3628 48.2641 45.3628 48.3001V52.2437C45.3628 52.2797 45.3628 52.2977 45.3628 52.2977C45.3628 52.2977 45.3448 52.2977 45.3088 52.2977H41.3652C41.3292 52.2977 41.3112 52.2977 41.3112 52.2977C41.3112 52.2977 41.3112 52.2797 41.3112 52.2437V48.3001C41.3112 48.2641 41.3112 48.246 41.3112 48.246C41.3112 48.246 41.3292 48.246 41.3652 48.246Z" fill="#4A4A4A"/>
<defs>
<linearGradient id="paint0_linear_61_648" x1="0" y1="0" x2="68" y2="68" gradientUnits="userSpaceOnUse">
<stop offset="0.129808" stop-color="#F5F4F3"/>
<stop offset="0.5" stop-color="#ADADAD"/>
<stop offset="0.875" stop-color="#F5F4F3"/>
<stop offset="1" stop-color="#F5F4F3"/>
</linearGradient>
</defs>
</svg>
