<?xml version="1.0" encoding="UTF-8"?>
<svg id="Capa_2" data-name="Capa 2" xmlns="http://www.w3.org/2000/svg" viewBox="0 0 182 182">
  <defs>
    <style>
      .cls-1 {
        fill: #4b4a4a;
      }
    </style>
  </defs>
  <g id="Capa_1-2" data-name="Capa 1">
    <g>
      <path class="cls-1" d="M36,24c.03-3.99-.02-8.01,0-12h23.5c3,0-.39-9.81.5-12h62v12h24c.02,3.99-.03,8.01,0,12-8.32-.1-16.69.07-25.01,0v-12.01s-59.99,0-59.99,0v12.01c-8.31.07-16.68-.11-25,0Z"/>
      <path class="cls-1" d="M36,24c-.03,3.99.02,8.02,0,12.01-3.99.02-8.02-.03-12.01,0,.05-3.99-.03-8.02,0-12.01,3.99-.03,8.02.05,12.01,0Z"/>
      <path class="cls-1" d="M146,24c3.99.05,8.02-.03,12.01,0,.03,3.99-.05,8.02,0,12.01-3.99-.03-8.02.02-12.01,0-.02-3.99.03-8.02,0-12.01Z"/>
      <path class="cls-1" d="M24,36c-.1,8.32.07,16.69,0,25.01h-12.01s0,59.99,0,59.99h12.01c.07,8.31-.11,16.68,0,25-3.99-.03-8.01.02-12,0v-23.5c-2.9-2.93-8.14-.98-12-1.5v-61h12v-24c3.99-.02,8.01.03,12,0Z"/>
      <path class="cls-1" d="M158,36c3.99.03,8.01-.02,12,0v24h12v61c-3.86.52-9.1-1.43-12,1.5v23.5c-3.99.02-8.01-.03-12,0,.1-8.32-.07-16.69,0-25.01h12.01s0-59.99,0-59.99h-12.01c-.07-8.31.11-16.68,0-25Z"/>
      <path class="cls-1" d="M24,146c3.99.03,8.02-.02,12.01,0,.02,3.99-.03,8.02,0,12.01-3.99-.05-8.02.03-12.01,0-.03-3.99.05-8.02,0-12.01Z"/>
      <path class="cls-1" d="M158,146c-.05,3.99.03,8.02,0,12.01-3.99.03-8.02-.05-12.01,0,.03-3.99-.02-8.02,0-12.01,3.99-.02,8.02.03,12.01,0Z"/>
      <path class="cls-1" d="M36,158c8.32.1,16.69-.07,25.01,0v12.01s59.99,0,59.99,0v-12.01c8.31-.07,16.68.11,25,0-.03,3.99.02,8.01,0,12h-24v12h-61c-.52-3.86,1.43-9.1-1.5-12h-23.5c-.02-3.99.03-8.01,0-12Z"/>
      <path class="cls-1" d="M66,86c-3.32-.03-6.68.02-10,0v-28.5c1.36-2.91,9.29-.78,10-1.5l.43-9.07,9.09-.88.47-9.05h30v9s9.05.49,9.05.49l.95,9.51c.71.71,8.64-1.41,10,1.5v28.5c-3.32.02-6.68-.03-10,0,.16-9.43.01-18.92-.14-28.36l-1.5-1.5-8.37-.13v-9.01s-30,0-30,0v9.01s-8.36.13-8.36.13l-1.5,1.5c-.15,9.44-.29,18.93-.14,28.36Z"/>
      <path class="cls-1" d="M66,86c3.32.03,6.68-.03,10.01,0,.04,3.32-.06,6.68,0,10.01-3.32-.05-6.68.04-10.01,0-.04-3.32.06-6.68,0-10.01Z"/>
      <path class="cls-1" d="M116,86c-.05,3.32.04,6.68,0,10.01-3.32.04-6.68-.06-10.01,0,.06-3.32-.04-6.68,0-10.01,3.32-.02,6.68.04,10.01,0Z"/>
      <path class="cls-1" d="M106,96c-.06,3.32-.06,6.68,0,10-9.98-.05-20.02-.05-30,0,.06-3.32.06-6.68,0-10,9.95.16,20.05.16,30,0Z"/>
      <path class="cls-1" d="M76,106c-.06,3.32.04,6.68,0,10.01-6.65.07-13.35-.12-20.01,0,.05-3.32-.04-6.68,0-10.01,6.65-.02,13.35.04,20.01,0Z"/>
      <path class="cls-1" d="M106,106c6.65.03,13.35-.02,20.01,0,.04,3.32-.06,6.68,0,10.01-6.65-.11-13.35.08-20.01,0-.04-3.32.06-6.68,0-10.01Z"/>
      <path class="cls-1" d="M56,116c-.1,6.32.08,12.68,0,19h70c-.08-6.32.1-12.68,0-19,3.32.06,6.68-.04,10,0v29H46v-29c3.32-.04,6.68.06,10,0Z"/>
    </g>
  </g>
</svg>