<svg width="141" height="21" viewBox="0 0 141 21" fill="none" xmlns="http://www.w3.org/2000/svg">
<path d="M0.41888 0.415041H2.60304C2.62299 0.415041 2.63296 0.415041 2.63296 0.415041C2.63296 0.415041 2.63296 0.425014 2.63296 0.44496V2.62912C2.63296 2.64907 2.63296 2.65904 2.63296 2.65904C2.63296 2.65904 2.62299 2.65904 2.60304 2.65904H0.41888C0.398933 2.65904 0.38896 2.65904 0.38896 2.65904C0.38896 2.65904 0.38896 2.64907 0.38896 2.62912V0.44496C0.38896 0.425014 0.38896 0.415041 0.38896 0.415041C0.38896 0.415041 0.398933 0.415041 0.41888 0.415041ZM3.41088 0.415041H5.59504C5.61499 0.415041 5.62496 0.415041 5.62496 0.415041C5.62496 0.415041 5.62496 0.425014 5.62496 0.44496V2.62912C5.62496 2.64907 5.62496 2.65904 5.62496 2.65904C5.62496 2.65904 5.61499 2.65904 5.59504 2.65904H3.41088C3.39093 2.65904 3.38096 2.65904 3.38096 2.65904C3.38096 2.65904 3.38096 2.64907 3.38096 2.62912V0.44496C3.38096 0.425014 3.38096 0.415041 3.38096 0.415041C3.38096 0.415041 3.39093 0.415041 3.41088 0.415041ZM6.40288 0.415041H8.58704C8.60699 0.415041 8.61696 0.415041 8.61696 0.415041C8.61696 0.415041 8.61696 0.425014 8.61696 0.44496V2.62912C8.61696 2.64907 8.61696 2.65904 8.61696 2.65904C8.61696 2.65904 8.60699 2.65904 8.58704 2.65904H6.40288C6.38293 2.65904 6.37296 2.65904 6.37296 2.65904C6.37296 2.65904 6.37296 2.64907 6.37296 2.62912V0.44496C6.37296 0.425014 6.37296 0.415041 6.37296 0.415041C6.37296 0.415041 6.38293 0.415041 6.40288 0.415041ZM9.39488 0.415041H11.579C11.599 0.415041 11.609 0.415041 11.609 0.415041C11.609 0.415041 11.609 0.425014 11.609 0.44496V2.62912C11.609 2.64907 11.609 2.65904 11.609 2.65904C11.609 2.65904 11.599 2.65904 11.579 2.65904H9.39488C9.37493 2.65904 9.36496 2.65904 9.36496 2.65904C9.36496 2.65904 9.36496 2.64907 9.36496 2.62912V0.44496C9.36496 0.425014 9.36496 0.415041 9.36496 0.415041C9.36496 0.415041 9.37493 0.415041 9.39488 0.415041ZM12.3869 0.415041H14.571C14.591 0.415041 14.601 0.415041 14.601 0.415041C14.601 0.415041 14.601 0.425014 14.601 0.44496V2.62912C14.601 2.64907 14.601 2.65904 14.601 2.65904C14.601 2.65904 14.591 2.65904 14.571 2.65904H12.3869C12.3669 2.65904 12.357 2.65904 12.357 2.65904C12.357 2.65904 12.357 2.64907 12.357 2.62912V0.44496C12.357 0.425014 12.357 0.415041 12.357 0.415041C12.357 0.415041 12.3669 0.415041 12.3869 0.415041ZM12.3869 3.40704H14.571C14.591 3.40704 14.601 3.40704 14.601 3.40704C14.601 3.40704 14.601 3.41701 14.601 3.43696V5.62112C14.601 5.64107 14.601 5.65104 14.601 5.65104C14.601 5.65104 14.591 5.65104 14.571 5.65104H12.3869C12.3669 5.65104 12.357 5.65104 12.357 5.65104C12.357 5.65104 12.357 5.64107 12.357 5.62112V3.43696C12.357 3.41701 12.357 3.40704 12.357 3.40704C12.357 3.40704 12.3669 3.40704 12.3869 3.40704ZM9.39488 6.39904H11.579C11.599 6.39904 11.609 6.39904 11.609 6.39904C11.609 6.39904 11.609 6.40901 11.609 6.42896V8.61312C11.609 8.63307 11.609 8.64304 11.609 8.64304C11.609 8.64304 11.599 8.64304 11.579 8.64304H9.39488C9.37493 8.64304 9.36496 8.64304 9.36496 8.64304C9.36496 8.64304 9.36496 8.63307 9.36496 8.61312V6.42896C9.36496 6.40901 9.36496 6.39904 9.36496 6.39904C9.36496 6.39904 9.37493 6.39904 9.39488 6.39904ZM6.40288 9.39104H8.58704C8.60699 9.39104 8.61696 9.39104 8.61696 9.39104C8.61696 9.39104 8.61696 9.40101 8.61696 9.42096V11.6051C8.61696 11.6251 8.61696 11.635 8.61696 11.635C8.61696 11.635 8.60699 11.635 8.58704 11.635H6.40288C6.38293 11.635 6.37296 11.635 6.37296 11.635C6.37296 11.635 6.37296 11.6251 6.37296 11.6051V9.42096C6.37296 9.40101 6.37296 9.39104 6.37296 9.39104C6.37296 9.39104 6.38293 9.39104 6.40288 9.39104ZM3.41088 12.383H5.59504C5.61499 12.383 5.62496 12.383 5.62496 12.383C5.62496 12.383 5.62496 12.393 5.62496 12.413V14.5971C5.62496 14.6171 5.62496 14.627 5.62496 14.627C5.62496 14.627 5.61499 14.627 5.59504 14.627H3.41088C3.39093 14.627 3.38096 14.627 3.38096 14.627C3.38096 14.627 3.38096 14.6171 3.38096 14.5971V12.413C3.38096 12.393 3.38096 12.383 3.38096 12.383C3.38096 12.383 3.39093 12.383 3.41088 12.383ZM0.41888 15.375H2.60304C2.62299 15.375 2.63296 15.375 2.63296 15.375C2.63296 15.375 2.63296 15.385 2.63296 15.405V17.5891C2.63296 17.6091 2.63296 17.619 2.63296 17.619C2.63296 17.619 2.62299 17.619 2.60304 17.619H0.41888C0.398933 17.619 0.38896 17.619 0.38896 17.619C0.38896 17.619 0.38896 17.6091 0.38896 17.5891V15.405C0.38896 15.385 0.38896 15.375 0.38896 15.375C0.38896 15.375 0.398933 15.375 0.41888 15.375ZM0.41888 18.367H2.60304C2.62299 18.367 2.63296 18.367 2.63296 18.367C2.63296 18.367 2.63296 18.377 2.63296 18.397V20.5811C2.63296 20.6011 2.63296 20.611 2.63296 20.611C2.63296 20.611 2.62299 20.611 2.60304 20.611H0.41888C0.398933 20.611 0.38896 20.611 0.38896 20.611C0.38896 20.611 0.38896 20.6011 0.38896 20.5811V18.397C0.38896 18.377 0.38896 18.367 0.38896 18.367C0.38896 18.367 0.398933 18.367 0.41888 18.367ZM3.41088 18.367H5.59504C5.61499 18.367 5.62496 18.367 5.62496 18.367C5.62496 18.367 5.62496 18.377 5.62496 18.397V20.5811C5.62496 20.6011 5.62496 20.611 5.62496 20.611C5.62496 20.611 5.61499 20.611 5.59504 20.611H3.41088C3.39093 20.611 3.38096 20.611 3.38096 20.611C3.38096 20.611 3.38096 20.6011 3.38096 20.5811V18.397C3.38096 18.377 3.38096 18.367 3.38096 18.367C3.38096 18.367 3.39093 18.367 3.41088 18.367ZM6.40288 18.367H8.58704C8.60699 18.367 8.61696 18.367 8.61696 18.367C8.61696 18.367 8.61696 18.377 8.61696 18.397V20.5811C8.61696 20.6011 8.61696 20.611 8.61696 20.611C8.61696 20.611 8.60699 20.611 8.58704 20.611H6.40288C6.38293 20.611 6.37296 20.611 6.37296 20.611C6.37296 20.611 6.37296 20.6011 6.37296 20.5811V18.397C6.37296 18.377 6.37296 18.367 6.37296 18.367C6.37296 18.367 6.38293 18.367 6.40288 18.367ZM9.39488 18.367H11.579C11.599 18.367 11.609 18.367 11.609 18.367C11.609 18.367 11.609 18.377 11.609 18.397V20.5811C11.609 20.6011 11.609 20.611 11.609 20.611C11.609 20.611 11.599 20.611 11.579 20.611H9.39488C9.37493 20.611 9.36496 20.611 9.36496 20.611C9.36496 20.611 9.36496 20.6011 9.36496 20.5811V18.397C9.36496 18.377 9.36496 18.367 9.36496 18.367C9.36496 18.367 9.37493 18.367 9.39488 18.367ZM12.3869 18.367H14.571C14.591 18.367 14.601 18.367 14.601 18.367C14.601 18.367 14.601 18.377 14.601 18.397V20.5811C14.601 20.6011 14.601 20.611 14.601 20.611C14.601 20.611 14.591 20.611 14.571 20.611H12.3869C12.3669 20.611 12.357 20.611 12.357 20.611C12.357 20.611 12.357 20.6011 12.357 20.5811V18.397C12.357 18.377 12.357 18.367 12.357 18.367C12.357 18.367 12.3669 18.367 12.3869 18.367ZM21.3512 6.39904H23.5354C23.5553 6.39904 23.5653 6.39904 23.5653 6.39904C23.5653 6.39904 23.5653 6.40901 23.5653 6.42896V8.61312C23.5653 8.63307 23.5653 8.64304 23.5653 8.64304C23.5653 8.64304 23.5553 8.64304 23.5354 8.64304H21.3512C21.3312 8.64304 21.3213 8.64304 21.3213 8.64304C21.3213 8.64304 21.3213 8.63307 21.3213 8.61312V6.42896C21.3213 6.40901 21.3213 6.39904 21.3213 6.39904C21.3213 6.39904 21.3312 6.39904 21.3512 6.39904ZM24.3432 6.39904H26.5274C26.5473 6.39904 26.5573 6.39904 26.5573 6.39904C26.5573 6.39904 26.5573 6.40901 26.5573 6.42896V8.61312C26.5573 8.63307 26.5573 8.64304 26.5573 8.64304C26.5573 8.64304 26.5473 8.64304 26.5274 8.64304H24.3432C24.3232 8.64304 24.3133 8.64304 24.3133 8.64304C24.3133 8.64304 24.3133 8.63307 24.3133 8.61312V6.42896C24.3133 6.40901 24.3133 6.39904 24.3133 6.39904C24.3133 6.39904 24.3232 6.39904 24.3432 6.39904ZM27.3352 6.39904H29.5194C29.5393 6.39904 29.5493 6.39904 29.5493 6.39904C29.5493 6.39904 29.5493 6.40901 29.5493 6.42896V8.61312C29.5493 8.63307 29.5493 8.64304 29.5493 8.64304C29.5493 8.64304 29.5393 8.64304 29.5194 8.64304H27.3352C27.3152 8.64304 27.3053 8.64304 27.3053 8.64304C27.3053 8.64304 27.3053 8.63307 27.3053 8.61312V6.42896C27.3053 6.40901 27.3053 6.39904 27.3053 6.39904C27.3053 6.39904 27.3152 6.39904 27.3352 6.39904ZM18.3592 9.39104H20.5434C20.5633 9.39104 20.5733 9.39104 20.5733 9.39104C20.5733 9.39104 20.5733 9.40101 20.5733 9.42096V11.6051C20.5733 11.6251 20.5733 11.635 20.5733 11.635C20.5733 11.635 20.5633 11.635 20.5434 11.635H18.3592C18.3392 11.635 18.3293 11.635 18.3293 11.635C18.3293 11.635 18.3293 11.6251 18.3293 11.6051V9.42096C18.3293 9.40101 18.3293 9.39104 18.3293 9.39104C18.3293 9.39104 18.3392 9.39104 18.3592 9.39104ZM30.3272 9.39104H32.5114C32.5313 9.39104 32.5413 9.39104 32.5413 9.39104C32.5413 9.39104 32.5413 9.40101 32.5413 9.42096V11.6051C32.5413 11.6251 32.5413 11.635 32.5413 11.635C32.5413 11.635 32.5313 11.635 32.5114 11.635H30.3272C30.3072 11.635 30.2973 11.635 30.2973 11.635C30.2973 11.635 30.2973 11.6251 30.2973 11.6051V9.42096C30.2973 9.40101 30.2973 9.39104 30.2973 9.39104C30.2973 9.39104 30.3072 9.39104 30.3272 9.39104ZM18.3592 12.383H20.5434C20.5633 12.383 20.5733 12.383 20.5733 12.383C20.5733 12.383 20.5733 12.393 20.5733 12.413V14.5971C20.5733 14.6171 20.5733 14.627 20.5733 14.627C20.5733 14.627 20.5633 14.627 20.5434 14.627H18.3592C18.3392 14.627 18.3293 14.627 18.3293 14.627C18.3293 14.627 18.3293 14.6171 18.3293 14.5971V12.413C18.3293 12.393 18.3293 12.383 18.3293 12.383C18.3293 12.383 18.3392 12.383 18.3592 12.383ZM21.3512 12.383H23.5354C23.5553 12.383 23.5653 12.383 23.5653 12.383C23.5653 12.383 23.5653 12.393 23.5653 12.413V14.5971C23.5653 14.6171 23.5653 14.627 23.5653 14.627C23.5653 14.627 23.5553 14.627 23.5354 14.627H21.3512C21.3312 14.627 21.3213 14.627 21.3213 14.627C21.3213 14.627 21.3213 14.6171 21.3213 14.5971V12.413C21.3213 12.393 21.3213 12.383 21.3213 12.383C21.3213 12.383 21.3312 12.383 21.3512 12.383ZM24.3432 12.383H26.5274C26.5473 12.383 26.5573 12.383 26.5573 12.383C26.5573 12.383 26.5573 12.393 26.5573 12.413V14.5971C26.5573 14.6171 26.5573 14.627 26.5573 14.627C26.5573 14.627 26.5473 14.627 26.5274 14.627H24.3432C24.3232 14.627 24.3133 14.627 24.3133 14.627C24.3133 14.627 24.3133 14.6171 24.3133 14.5971V12.413C24.3133 12.393 24.3133 12.383 24.3133 12.383C24.3133 12.383 24.3232 12.383 24.3432 12.383ZM27.3352 12.383H29.5194C29.5393 12.383 29.5493 12.383 29.5493 12.383C29.5493 12.383 29.5493 12.393 29.5493 12.413V14.5971C29.5493 14.6171 29.5493 14.627 29.5493 14.627C29.5493 14.627 29.5393 14.627 29.5194 14.627H27.3352C27.3152 14.627 27.3053 14.627 27.3053 14.627C27.3053 14.627 27.3053 14.6171 27.3053 14.5971V12.413C27.3053 12.393 27.3053 12.383 27.3053 12.383C27.3053 12.383 27.3152 12.383 27.3352 12.383ZM30.3272 12.383H32.5114C32.5313 12.383 32.5413 12.383 32.5413 12.383C32.5413 12.383 32.5413 12.393 32.5413 12.413V14.5971C32.5413 14.6171 32.5413 14.627 32.5413 14.627C32.5413 14.627 32.5313 14.627 32.5114 14.627H30.3272C30.3072 14.627 30.2973 14.627 30.2973 14.627C30.2973 14.627 30.2973 14.6171 30.2973 14.5971V12.413C30.2973 12.393 30.2973 12.383 30.2973 12.383C30.2973 12.383 30.3072 12.383 30.3272 12.383ZM18.3592 15.375H20.5434C20.5633 15.375 20.5733 15.375 20.5733 15.375C20.5733 15.375 20.5733 15.385 20.5733 15.405V17.5891C20.5733 17.6091 20.5733 17.619 20.5733 17.619C20.5733 17.619 20.5633 17.619 20.5434 17.619H18.3592C18.3392 17.619 18.3293 17.619 18.3293 17.619C18.3293 17.619 18.3293 17.6091 18.3293 17.5891V15.405C18.3293 15.385 18.3293 15.375 18.3293 15.375C18.3293 15.375 18.3392 15.375 18.3592 15.375ZM21.3512 18.367H23.5354C23.5553 18.367 23.5653 18.367 23.5653 18.367C23.5653 18.367 23.5653 18.377 23.5653 18.397V20.5811C23.5653 20.6011 23.5653 20.611 23.5653 20.611C23.5653 20.611 23.5553 20.611 23.5354 20.611H21.3512C21.3312 20.611 21.3213 20.611 21.3213 20.611C21.3213 20.611 21.3213 20.6011 21.3213 20.5811V18.397C21.3213 18.377 21.3213 18.367 21.3213 18.367C21.3213 18.367 21.3312 18.367 21.3512 18.367ZM24.3432 18.367H26.5274C26.5473 18.367 26.5573 18.367 26.5573 18.367C26.5573 18.367 26.5573 18.377 26.5573 18.397V20.5811C26.5573 20.6011 26.5573 20.611 26.5573 20.611C26.5573 20.611 26.5473 20.611 26.5274 20.611H24.3432C24.3232 20.611 24.3133 20.611 24.3133 20.611C24.3133 20.611 24.3133 20.6011 24.3133 20.5811V18.397C24.3133 18.377 24.3133 18.367 24.3133 18.367C24.3133 18.367 24.3232 18.367 24.3432 18.367ZM27.3352 18.367H29.5194C29.5393 18.367 29.5493 18.367 29.5493 18.367C29.5493 18.367 29.5493 18.377 29.5493 18.397V20.5811C29.5493 20.6011 29.5493 20.611 29.5493 20.611C29.5493 20.611 29.5393 20.611 29.5194 20.611H27.3352C27.3152 20.611 27.3053 20.611 27.3053 20.611C27.3053 20.611 27.3053 20.6011 27.3053 20.5811V18.397C27.3053 18.377 27.3053 18.367 27.3053 18.367C27.3053 18.367 27.3152 18.367 27.3352 18.367ZM36.2995 6.39904H38.4837C38.5036 6.39904 38.5136 6.39904 38.5136 6.39904C38.5136 6.39904 38.5136 6.40901 38.5136 6.42896V8.61312C38.5136 8.63307 38.5136 8.64304 38.5136 8.64304C38.5136 8.64304 38.5036 8.64304 38.4837 8.64304H36.2995C36.2796 8.64304 36.2696 8.64304 36.2696 8.64304C36.2696 8.64304 36.2696 8.63307 36.2696 8.61312V6.42896C36.2696 6.40901 36.2696 6.39904 36.2696 6.39904C36.2696 6.39904 36.2796 6.39904 36.2995 6.39904ZM42.2835 6.39904H44.4677C44.4876 6.39904 44.4976 6.39904 44.4976 6.39904C44.4976 6.39904 44.4976 6.40901 44.4976 6.42896V8.61312C44.4976 8.63307 44.4976 8.64304 44.4976 8.64304C44.4976 8.64304 44.4876 8.64304 44.4677 8.64304H42.2835C42.2636 8.64304 42.2536 8.64304 42.2536 8.64304C42.2536 8.64304 42.2536 8.63307 42.2536 8.61312V6.42896C42.2536 6.40901 42.2536 6.39904 42.2536 6.39904C42.2536 6.39904 42.2636 6.39904 42.2835 6.39904ZM45.2755 6.39904H47.4597C47.4796 6.39904 47.4896 6.39904 47.4896 6.39904C47.4896 6.39904 47.4896 6.40901 47.4896 6.42896V8.61312C47.4896 8.63307 47.4896 8.64304 47.4896 8.64304C47.4896 8.64304 47.4796 8.64304 47.4597 8.64304H45.2755C45.2556 8.64304 45.2456 8.64304 45.2456 8.64304C45.2456 8.64304 45.2456 8.63307 45.2456 8.61312V6.42896C45.2456 6.40901 45.2456 6.39904 45.2456 6.39904C45.2456 6.39904 45.2556 6.39904 45.2755 6.39904ZM36.2995 9.39104H38.4837C38.5036 9.39104 38.5136 9.39104 38.5136 9.39104C38.5136 9.39104 38.5136 9.40101 38.5136 9.42096V11.6051C38.5136 11.6251 38.5136 11.635 38.5136 11.635C38.5136 11.635 38.5036 11.635 38.4837 11.635H36.2995C36.2796 11.635 36.2696 11.635 36.2696 11.635C36.2696 11.635 36.2696 11.6251 36.2696 11.6051V9.42096C36.2696 9.40101 36.2696 9.39104 36.2696 9.39104C36.2696 9.39104 36.2796 9.39104 36.2995 9.39104ZM39.2915 9.39104H41.4757C41.4956 9.39104 41.5056 9.39104 41.5056 9.39104C41.5056 9.39104 41.5056 9.40101 41.5056 9.42096V11.6051C41.5056 11.6251 41.5056 11.635 41.5056 11.635C41.5056 11.635 41.4956 11.635 41.4757 11.635H39.2915C39.2716 11.635 39.2616 11.635 39.2616 11.635C39.2616 11.635 39.2616 11.6251 39.2616 11.6051V9.42096C39.2616 9.40101 39.2616 9.39104 39.2616 9.39104C39.2616 9.39104 39.2716 9.39104 39.2915 9.39104ZM48.2675 9.39104H50.4517C50.4716 9.39104 50.4816 9.39104 50.4816 9.39104C50.4816 9.39104 50.4816 9.40101 50.4816 9.42096V11.6051C50.4816 11.6251 50.4816 11.635 50.4816 11.635C50.4816 11.635 50.4716 11.635 50.4517 11.635H48.2675C48.2476 11.635 48.2376 11.635 48.2376 11.635C48.2376 11.635 48.2376 11.6251 48.2376 11.6051V9.42096C48.2376 9.40101 48.2376 9.39104 48.2376 9.39104C48.2376 9.39104 48.2476 9.39104 48.2675 9.39104ZM36.2995 12.383H38.4837C38.5036 12.383 38.5136 12.383 38.5136 12.383C38.5136 12.383 38.5136 12.393 38.5136 12.413V14.5971C38.5136 14.6171 38.5136 14.627 38.5136 14.627C38.5136 14.627 38.5036 14.627 38.4837 14.627H36.2995C36.2796 14.627 36.2696 14.627 36.2696 14.627C36.2696 14.627 36.2696 14.6171 36.2696 14.5971V12.413C36.2696 12.393 36.2696 12.383 36.2696 12.383C36.2696 12.383 36.2796 12.383 36.2995 12.383ZM48.2675 12.383H50.4517C50.4716 12.383 50.4816 12.383 50.4816 12.383C50.4816 12.383 50.4816 12.393 50.4816 12.413V14.5971C50.4816 14.6171 50.4816 14.627 50.4816 14.627C50.4816 14.627 50.4716 14.627 50.4517 14.627H48.2675C48.2476 14.627 48.2376 14.627 48.2376 14.627C48.2376 14.627 48.2376 14.6171 48.2376 14.5971V12.413C48.2376 12.393 48.2376 12.383 48.2376 12.383C48.2376 12.383 48.2476 12.383 48.2675 12.383ZM36.2995 15.375H38.4837C38.5036 15.375 38.5136 15.375 38.5136 15.375C38.5136 15.375 38.5136 15.385 38.5136 15.405V17.5891C38.5136 17.6091 38.5136 17.619 38.5136 17.619C38.5136 17.619 38.5036 17.619 38.4837 17.619H36.2995C36.2796 17.619 36.2696 17.619 36.2696 17.619C36.2696 17.619 36.2696 17.6091 36.2696 17.5891V15.405C36.2696 15.385 36.2696 15.375 36.2696 15.375C36.2696 15.375 36.2796 15.375 36.2995 15.375ZM48.2675 15.375H50.4517C50.4716 15.375 50.4816 15.375 50.4816 15.375C50.4816 15.375 50.4816 15.385 50.4816 15.405V17.5891C50.4816 17.6091 50.4816 17.619 50.4816 17.619C50.4816 17.619 50.4716 17.619 50.4517 17.619H48.2675C48.2476 17.619 48.2376 17.619 48.2376 17.619C48.2376 17.619 48.2376 17.6091 48.2376 17.5891V15.405C48.2376 15.385 48.2376 15.375 48.2376 15.375C48.2376 15.375 48.2476 15.375 48.2675 15.375ZM36.2995 18.367H38.4837C38.5036 18.367 38.5136 18.367 38.5136 18.367C38.5136 18.367 38.5136 18.377 38.5136 18.397V20.5811C38.5136 20.6011 38.5136 20.611 38.5136 20.611C38.5136 20.611 38.5036 20.611 38.4837 20.611H36.2995C36.2796 20.611 36.2696 20.611 36.2696 20.611C36.2696 20.611 36.2696 20.6011 36.2696 20.5811V18.397C36.2696 18.377 36.2696 18.367 36.2696 18.367C36.2696 18.367 36.2796 18.367 36.2995 18.367ZM48.2675 18.367H50.4517C50.4716 18.367 50.4816 18.367 50.4816 18.367C50.4816 18.367 50.4816 18.377 50.4816 18.397V20.5811C50.4816 20.6011 50.4816 20.611 50.4816 20.611C50.4816 20.611 50.4716 20.611 50.4517 20.611H48.2675C48.2476 20.611 48.2376 20.611 48.2376 20.611C48.2376 20.611 48.2376 20.6011 48.2376 20.5811V18.397C48.2376 18.377 48.2376 18.367 48.2376 18.367C48.2376 18.367 48.2476 18.367 48.2675 18.367ZM54.2398 0.415041H56.424C56.4439 0.415041 56.4539 0.415041 56.4539 0.415041C56.4539 0.415041 56.4539 0.425014 56.4539 0.44496V2.62912C56.4539 2.64907 56.4539 2.65904 56.4539 2.65904C56.4539 2.65904 56.4439 2.65904 56.424 2.65904H54.2398C54.2199 2.65904 54.2099 2.65904 54.2099 2.65904C54.2099 2.65904 54.2099 2.64907 54.2099 2.62912V0.44496C54.2099 0.425014 54.2099 0.415041 54.2099 0.415041C54.2099 0.415041 54.2199 0.415041 54.2398 0.415041ZM57.2318 0.415041H59.416C59.4359 0.415041 59.4459 0.415041 59.4459 0.415041C59.4459 0.415041 59.4459 0.425014 59.4459 0.44496V2.62912C59.4459 2.64907 59.4459 2.65904 59.4459 2.65904C59.4459 2.65904 59.4359 2.65904 59.416 2.65904H57.2318C57.2119 2.65904 57.2019 2.65904 57.2019 2.65904C57.2019 2.65904 57.2019 2.64907 57.2019 2.62912V0.44496C57.2019 0.425014 57.2019 0.415041 57.2019 0.415041C57.2019 0.415041 57.2119 0.415041 57.2318 0.415041ZM60.2238 0.415041H62.408C62.4279 0.415041 62.4379 0.415041 62.4379 0.415041C62.4379 0.415041 62.4379 0.425014 62.4379 0.44496V2.62912C62.4379 2.64907 62.4379 2.65904 62.4379 2.65904C62.4379 2.65904 62.4279 2.65904 62.408 2.65904H60.2238C60.2039 2.65904 60.1939 2.65904 60.1939 2.65904C60.1939 2.65904 60.1939 2.64907 60.1939 2.62912V0.44496C60.1939 0.425014 60.1939 0.415041 60.1939 0.415041C60.1939 0.415041 60.2039 0.415041 60.2238 0.415041ZM63.2158 0.415041H65.4C65.4199 0.415041 65.4299 0.415041 65.4299 0.415041C65.4299 0.415041 65.4299 0.425014 65.4299 0.44496V2.62912C65.4299 2.64907 65.4299 2.65904 65.4299 2.65904C65.4299 2.65904 65.4199 2.65904 65.4 2.65904H63.2158C63.1959 2.65904 63.1859 2.65904 63.1859 2.65904C63.1859 2.65904 63.1859 2.64907 63.1859 2.62912V0.44496C63.1859 0.425014 63.1859 0.415041 63.1859 0.415041C63.1859 0.415041 63.1959 0.415041 63.2158 0.415041ZM54.2398 3.40704H56.424C56.4439 3.40704 56.4539 3.40704 56.4539 3.40704C56.4539 3.40704 56.4539 3.41701 56.4539 3.43696V5.62112C56.4539 5.64107 56.4539 5.65104 56.4539 5.65104C56.4539 5.65104 56.4439 5.65104 56.424 5.65104H54.2398C54.2199 5.65104 54.2099 5.65104 54.2099 5.65104C54.2099 5.65104 54.2099 5.64107 54.2099 5.62112V3.43696C54.2099 3.41701 54.2099 3.40704 54.2099 3.40704C54.2099 3.40704 54.2199 3.40704 54.2398 3.40704ZM66.2078 3.40704H68.392C68.4119 3.40704 68.4219 3.40704 68.4219 3.40704C68.4219 3.40704 68.4219 3.41701 68.4219 3.43696V5.62112C68.4219 5.64107 68.4219 5.65104 68.4219 5.65104C68.4219 5.65104 68.4119 5.65104 68.392 5.65104H66.2078C66.1879 5.65104 66.1779 5.65104 66.1779 5.65104C66.1779 5.65104 66.1779 5.64107 66.1779 5.62112V3.43696C66.1779 3.41701 66.1779 3.40704 66.1779 3.40704C66.1779 3.40704 66.1879 3.40704 66.2078 3.40704ZM54.2398 6.39904H56.424C56.4439 6.39904 56.4539 6.39904 56.4539 6.39904C56.4539 6.39904 56.4539 6.40901 56.4539 6.42896V8.61312C56.4539 8.63307 56.4539 8.64304 56.4539 8.64304C56.4539 8.64304 56.4439 8.64304 56.424 8.64304H54.2398C54.2199 8.64304 54.2099 8.64304 54.2099 8.64304C54.2099 8.64304 54.2099 8.63307 54.2099 8.61312V6.42896C54.2099 6.40901 54.2099 6.39904 54.2099 6.39904C54.2099 6.39904 54.2199 6.39904 54.2398 6.39904ZM66.2078 6.39904H68.392C68.4119 6.39904 68.4219 6.39904 68.4219 6.39904C68.4219 6.39904 68.4219 6.40901 68.4219 6.42896V8.61312C68.4219 8.63307 68.4219 8.64304 68.4219 8.64304C68.4219 8.64304 68.4119 8.64304 68.392 8.64304H66.2078C66.1879 8.64304 66.1779 8.64304 66.1779 8.64304C66.1779 8.64304 66.1779 8.63307 66.1779 8.61312V6.42896C66.1779 6.40901 66.1779 6.39904 66.1779 6.39904C66.1779 6.39904 66.1879 6.39904 66.2078 6.39904ZM54.2398 9.39104H56.424C56.4439 9.39104 56.4539 9.39104 56.4539 9.39104C56.4539 9.39104 56.4539 9.40101 56.4539 9.42096V11.6051C56.4539 11.6251 56.4539 11.635 56.4539 11.635C56.4539 11.635 56.4439 11.635 56.424 11.635H54.2398C54.2199 11.635 54.2099 11.635 54.2099 11.635C54.2099 11.635 54.2099 11.6251 54.2099 11.6051V9.42096C54.2099 9.40101 54.2099 9.39104 54.2099 9.39104C54.2099 9.39104 54.2199 9.39104 54.2398 9.39104ZM57.2318 9.39104H59.416C59.4359 9.39104 59.4459 9.39104 59.4459 9.39104C59.4459 9.39104 59.4459 9.40101 59.4459 9.42096V11.6051C59.4459 11.6251 59.4459 11.635 59.4459 11.635C59.4459 11.635 59.4359 11.635 59.416 11.635H57.2318C57.2119 11.635 57.2019 11.635 57.2019 11.635C57.2019 11.635 57.2019 11.6251 57.2019 11.6051V9.42096C57.2019 9.40101 57.2019 9.39104 57.2019 9.39104C57.2019 9.39104 57.2119 9.39104 57.2318 9.39104ZM60.2238 9.39104H62.408C62.4279 9.39104 62.4379 9.39104 62.4379 9.39104C62.4379 9.39104 62.4379 9.40101 62.4379 9.42096V11.6051C62.4379 11.6251 62.4379 11.635 62.4379 11.635C62.4379 11.635 62.4279 11.635 62.408 11.635H60.2238C60.2039 11.635 60.1939 11.635 60.1939 11.635C60.1939 11.635 60.1939 11.6251 60.1939 11.6051V9.42096C60.1939 9.40101 60.1939 9.39104 60.1939 9.39104C60.1939 9.39104 60.2039 9.39104 60.2238 9.39104ZM63.2158 9.39104H65.4C65.4199 9.39104 65.4299 9.39104 65.4299 9.39104C65.4299 9.39104 65.4299 9.40101 65.4299 9.42096V11.6051C65.4299 11.6251 65.4299 11.635 65.4299 11.635C65.4299 11.635 65.4199 11.635 65.4 11.635H63.2158C63.1959 11.635 63.1859 11.635 63.1859 11.635C63.1859 11.635 63.1859 11.6251 63.1859 11.6051V9.42096C63.1859 9.40101 63.1859 9.39104 63.1859 9.39104C63.1859 9.39104 63.1959 9.39104 63.2158 9.39104ZM54.2398 12.383H56.424C56.4439 12.383 56.4539 12.383 56.4539 12.383C56.4539 12.383 56.4539 12.393 56.4539 12.413V14.5971C56.4539 14.6171 56.4539 14.627 56.4539 14.627C56.4539 14.627 56.4439 14.627 56.424 14.627H54.2398C54.2199 14.627 54.2099 14.627 54.2099 14.627C54.2099 14.627 54.2099 14.6171 54.2099 14.5971V12.413C54.2099 12.393 54.2099 12.383 54.2099 12.383C54.2099 12.383 54.2199 12.383 54.2398 12.383ZM54.2398 15.375H56.424C56.4439 15.375 56.4539 15.375 56.4539 15.375C56.4539 15.375 56.4539 15.385 56.4539 15.405V17.5891C56.4539 17.6091 56.4539 17.619 56.4539 17.619C56.4539 17.619 56.4439 17.619 56.424 17.619H54.2398C54.2199 17.619 54.2099 17.619 54.2099 17.619C54.2099 17.619 54.2099 17.6091 54.2099 17.5891V15.405C54.2099 15.385 54.2099 15.375 54.2099 15.375C54.2099 15.375 54.2199 15.375 54.2398 15.375ZM54.2398 18.367H56.424C56.4439 18.367 56.4539 18.367 56.4539 18.367C56.4539 18.367 56.4539 18.377 56.4539 18.397V20.5811C56.4539 20.6011 56.4539 20.611 56.4539 20.611C56.4539 20.611 56.4439 20.611 56.424 20.611H54.2398C54.2199 20.611 54.2099 20.611 54.2099 20.611C54.2099 20.611 54.2099 20.6011 54.2099 20.5811V18.397C54.2099 18.377 54.2099 18.367 54.2099 18.367C54.2099 18.367 54.2199 18.367 54.2398 18.367ZM72.1801 0.415041H74.3643C74.3842 0.415041 74.3942 0.415041 74.3942 0.415041C74.3942 0.415041 74.3942 0.425014 74.3942 0.44496V2.62912C74.3942 2.64907 74.3942 2.65904 74.3942 2.65904C74.3942 2.65904 74.3842 2.65904 74.3643 2.65904H72.1801C72.1602 2.65904 72.1502 2.65904 72.1502 2.65904C72.1502 2.65904 72.1502 2.64907 72.1502 2.62912V0.44496C72.1502 0.425014 72.1502 0.415041 72.1502 0.415041C72.1502 0.415041 72.1602 0.415041 72.1801 0.415041ZM72.1801 3.40704H74.3643C74.3842 3.40704 74.3942 3.40704 74.3942 3.40704C74.3942 3.40704 74.3942 3.41701 74.3942 3.43696V5.62112C74.3942 5.64107 74.3942 5.65104 74.3942 5.65104C74.3942 5.65104 74.3842 5.65104 74.3643 5.65104H72.1801C72.1602 5.65104 72.1502 5.65104 72.1502 5.65104C72.1502 5.65104 72.1502 5.64107 72.1502 5.62112V3.43696C72.1502 3.41701 72.1502 3.40704 72.1502 3.40704C72.1502 3.40704 72.1602 3.40704 72.1801 3.40704ZM72.1801 6.39904H74.3643C74.3842 6.39904 74.3942 6.39904 74.3942 6.39904C74.3942 6.39904 74.3942 6.40901 74.3942 6.42896V8.61312C74.3942 8.63307 74.3942 8.64304 74.3942 8.64304C74.3942 8.64304 74.3842 8.64304 74.3643 8.64304H72.1801C72.1602 8.64304 72.1502 8.64304 72.1502 8.64304C72.1502 8.64304 72.1502 8.63307 72.1502 8.61312V6.42896C72.1502 6.40901 72.1502 6.39904 72.1502 6.39904C72.1502 6.39904 72.1602 6.39904 72.1801 6.39904ZM78.1641 6.39904H80.3483C80.3682 6.39904 80.3782 6.39904 80.3782 6.39904C80.3782 6.39904 80.3782 6.40901 80.3782 6.42896V8.61312C80.3782 8.63307 80.3782 8.64304 80.3782 8.64304C80.3782 8.64304 80.3682 8.64304 80.3483 8.64304H78.1641C78.1442 8.64304 78.1342 8.64304 78.1342 8.64304C78.1342 8.64304 78.1342 8.63307 78.1342 8.61312V6.42896C78.1342 6.40901 78.1342 6.39904 78.1342 6.39904C78.1342 6.39904 78.1442 6.39904 78.1641 6.39904ZM81.1561 6.39904H83.3403C83.3602 6.39904 83.3702 6.39904 83.3702 6.39904C83.3702 6.39904 83.3702 6.40901 83.3702 6.42896V8.61312C83.3702 8.63307 83.3702 8.64304 83.3702 8.64304C83.3702 8.64304 83.3602 8.64304 83.3403 8.64304H81.1561C81.1362 8.64304 81.1262 8.64304 81.1262 8.64304C81.1262 8.64304 81.1262 8.63307 81.1262 8.61312V6.42896C81.1262 6.40901 81.1262 6.39904 81.1262 6.39904C81.1262 6.39904 81.1362 6.39904 81.1561 6.39904ZM72.1801 9.39104H74.3643C74.3842 9.39104 74.3942 9.39104 74.3942 9.39104C74.3942 9.39104 74.3942 9.40101 74.3942 9.42096V11.6051C74.3942 11.6251 74.3942 11.635 74.3942 11.635C74.3942 11.635 74.3842 11.635 74.3643 11.635H72.1801C72.1602 11.635 72.1502 11.635 72.1502 11.635C72.1502 11.635 72.1502 11.6251 72.1502 11.6051V9.42096C72.1502 9.40101 72.1502 9.39104 72.1502 9.39104C72.1502 9.39104 72.1602 9.39104 72.1801 9.39104ZM75.1721 9.39104H77.3563C77.3762 9.39104 77.3862 9.39104 77.3862 9.39104C77.3862 9.39104 77.3862 9.40101 77.3862 9.42096V11.6051C77.3862 11.6251 77.3862 11.635 77.3862 11.635C77.3862 11.635 77.3762 11.635 77.3563 11.635H75.1721C75.1522 11.635 75.1422 11.635 75.1422 11.635C75.1422 11.635 75.1422 11.6251 75.1422 11.6051V9.42096C75.1422 9.40101 75.1422 9.39104 75.1422 9.39104C75.1422 9.39104 75.1522 9.39104 75.1721 9.39104ZM84.1481 9.39104H86.3323C86.3522 9.39104 86.3622 9.39104 86.3622 9.39104C86.3622 9.39104 86.3622 9.40101 86.3622 9.42096V11.6051C86.3622 11.6251 86.3622 11.635 86.3622 11.635C86.3622 11.635 86.3522 11.635 86.3323 11.635H84.1481C84.1282 11.635 84.1182 11.635 84.1182 11.635C84.1182 11.635 84.1182 11.6251 84.1182 11.6051V9.42096C84.1182 9.40101 84.1182 9.39104 84.1182 9.39104C84.1182 9.39104 84.1282 9.39104 84.1481 9.39104ZM72.1801 12.383H74.3643C74.3842 12.383 74.3942 12.383 74.3942 12.383C74.3942 12.383 74.3942 12.393 74.3942 12.413V14.5971C74.3942 14.6171 74.3942 14.627 74.3942 14.627C74.3942 14.627 74.3842 14.627 74.3643 14.627H72.1801C72.1602 14.627 72.1502 14.627 72.1502 14.627C72.1502 14.627 72.1502 14.6171 72.1502 14.5971V12.413C72.1502 12.393 72.1502 12.383 72.1502 12.383C72.1502 12.383 72.1602 12.383 72.1801 12.383ZM84.1481 12.383H86.3323C86.3522 12.383 86.3622 12.383 86.3622 12.383C86.3622 12.383 86.3622 12.393 86.3622 12.413V14.5971C86.3622 14.6171 86.3622 14.627 86.3622 14.627C86.3622 14.627 86.3522 14.627 86.3323 14.627H84.1481C84.1282 14.627 84.1182 14.627 84.1182 14.627C84.1182 14.627 84.1182 14.6171 84.1182 14.5971V12.413C84.1182 12.393 84.1182 12.383 84.1182 12.383C84.1182 12.383 84.1282 12.383 84.1481 12.383ZM72.1801 15.375H74.3643C74.3842 15.375 74.3942 15.375 74.3942 15.375C74.3942 15.375 74.3942 15.385 74.3942 15.405V17.5891C74.3942 17.6091 74.3942 17.619 74.3942 17.619C74.3942 17.619 74.3842 17.619 74.3643 17.619H72.1801C72.1602 17.619 72.1502 17.619 72.1502 17.619C72.1502 17.619 72.1502 17.6091 72.1502 17.5891V15.405C72.1502 15.385 72.1502 15.375 72.1502 15.375C72.1502 15.375 72.1602 15.375 72.1801 15.375ZM84.1481 15.375H86.3323C86.3522 15.375 86.3622 15.375 86.3622 15.375C86.3622 15.375 86.3622 15.385 86.3622 15.405V17.5891C86.3622 17.6091 86.3622 17.619 86.3622 17.619C86.3622 17.619 86.3522 17.619 86.3323 17.619H84.1481C84.1282 17.619 84.1182 17.619 84.1182 17.619C84.1182 17.619 84.1182 17.6091 84.1182 17.5891V15.405C84.1182 15.385 84.1182 15.375 84.1182 15.375C84.1182 15.375 84.1282 15.375 84.1481 15.375ZM72.1801 18.367H74.3643C74.3842 18.367 74.3942 18.367 74.3942 18.367C74.3942 18.367 74.3942 18.377 74.3942 18.397V20.5811C74.3942 20.6011 74.3942 20.611 74.3942 20.611C74.3942 20.611 74.3842 20.611 74.3643 20.611H72.1801C72.1602 20.611 72.1502 20.611 72.1502 20.611C72.1502 20.611 72.1502 20.6011 72.1502 20.5811V18.397C72.1502 18.377 72.1502 18.367 72.1502 18.367C72.1502 18.367 72.1602 18.367 72.1801 18.367ZM84.1481 18.367H86.3323C86.3522 18.367 86.3622 18.367 86.3622 18.367C86.3622 18.367 86.3622 18.377 86.3622 18.397V20.5811C86.3622 20.6011 86.3622 20.611 86.3622 20.611C86.3622 20.611 86.3522 20.611 86.3323 20.611H84.1481C84.1282 20.611 84.1182 20.611 84.1182 20.611C84.1182 20.611 84.1182 20.6011 84.1182 20.5811V18.397C84.1182 18.377 84.1182 18.367 84.1182 18.367C84.1182 18.367 84.1282 18.367 84.1481 18.367ZM93.1124 6.39904H95.2966C95.3165 6.39904 95.3265 6.39904 95.3265 6.39904C95.3265 6.39904 95.3265 6.40901 95.3265 6.42896V8.61312C95.3265 8.63307 95.3265 8.64304 95.3265 8.64304C95.3265 8.64304 95.3165 8.64304 95.2966 8.64304H93.1124C93.0925 8.64304 93.0825 8.64304 93.0825 8.64304C93.0825 8.64304 93.0825 8.63307 93.0825 8.61312V6.42896C93.0825 6.40901 93.0825 6.39904 93.0825 6.39904C93.0825 6.39904 93.0925 6.39904 93.1124 6.39904ZM96.1044 6.39904H98.2886C98.3085 6.39904 98.3185 6.39904 98.3185 6.39904C98.3185 6.39904 98.3185 6.40901 98.3185 6.42896V8.61312C98.3185 8.63307 98.3185 8.64304 98.3185 8.64304C98.3185 8.64304 98.3085 8.64304 98.2886 8.64304H96.1044C96.0845 8.64304 96.0745 8.64304 96.0745 8.64304C96.0745 8.64304 96.0745 8.63307 96.0745 8.61312V6.42896C96.0745 6.40901 96.0745 6.39904 96.0745 6.39904C96.0745 6.39904 96.0845 6.39904 96.1044 6.39904ZM99.0964 6.39904H101.281C101.301 6.39904 101.311 6.39904 101.311 6.39904C101.311 6.39904 101.311 6.40901 101.311 6.42896V8.61312C101.311 8.63307 101.311 8.64304 101.311 8.64304C101.311 8.64304 101.301 8.64304 101.281 8.64304H99.0964C99.0765 8.64304 99.0665 8.64304 99.0665 8.64304C99.0665 8.64304 99.0665 8.63307 99.0665 8.61312V6.42896C99.0665 6.40901 99.0665 6.39904 99.0665 6.39904C99.0665 6.39904 99.0765 6.39904 99.0964 6.39904ZM90.1204 9.39104H92.3046C92.3245 9.39104 92.3345 9.39104 92.3345 9.39104C92.3345 9.39104 92.3345 9.40101 92.3345 9.42096V11.6051C92.3345 11.6251 92.3345 11.635 92.3345 11.635C92.3345 11.635 92.3245 11.635 92.3046 11.635H90.1204C90.1005 11.635 90.0905 11.635 90.0905 11.635C90.0905 11.635 90.0905 11.6251 90.0905 11.6051V9.42096C90.0905 9.40101 90.0905 9.39104 90.0905 9.39104C90.0905 9.39104 90.1005 9.39104 90.1204 9.39104ZM102.088 9.39104H104.273C104.293 9.39104 104.303 9.39104 104.303 9.39104C104.303 9.39104 104.303 9.40101 104.303 9.42096V11.6051C104.303 11.6251 104.303 11.635 104.303 11.635C104.303 11.635 104.293 11.635 104.273 11.635H102.088C102.068 11.635 102.059 11.635 102.059 11.635C102.059 11.635 102.059 11.6251 102.059 11.6051V9.42096C102.059 9.40101 102.059 9.39104 102.059 9.39104C102.059 9.39104 102.068 9.39104 102.088 9.39104ZM90.1204 12.383H92.3046C92.3245 12.383 92.3345 12.383 92.3345 12.383C92.3345 12.383 92.3345 12.393 92.3345 12.413V14.5971C92.3345 14.6171 92.3345 14.627 92.3345 14.627C92.3345 14.627 92.3245 14.627 92.3046 14.627H90.1204C90.1005 14.627 90.0905 14.627 90.0905 14.627C90.0905 14.627 90.0905 14.6171 90.0905 14.5971V12.413C90.0905 12.393 90.0905 12.383 90.0905 12.383C90.0905 12.383 90.1005 12.383 90.1204 12.383ZM102.088 12.383H104.273C104.293 12.383 104.303 12.383 104.303 12.383C104.303 12.383 104.303 12.393 104.303 12.413V14.5971C104.303 14.6171 104.303 14.627 104.303 14.627C104.303 14.627 104.293 14.627 104.273 14.627H102.088C102.068 14.627 102.059 14.627 102.059 14.627C102.059 14.627 102.059 14.6171 102.059 14.5971V12.413C102.059 12.393 102.059 12.383 102.059 12.383C102.059 12.383 102.068 12.383 102.088 12.383ZM90.1204 15.375H92.3046C92.3245 15.375 92.3345 15.375 92.3345 15.375C92.3345 15.375 92.3345 15.385 92.3345 15.405V17.5891C92.3345 17.6091 92.3345 17.619 92.3345 17.619C92.3345 17.619 92.3245 17.619 92.3046 17.619H90.1204C90.1005 17.619 90.0905 17.619 90.0905 17.619C90.0905 17.619 90.0905 17.6091 90.0905 17.5891V15.405C90.0905 15.385 90.0905 15.375 90.0905 15.375C90.0905 15.375 90.1005 15.375 90.1204 15.375ZM102.088 15.375H104.273C104.293 15.375 104.303 15.375 104.303 15.375C104.303 15.375 104.303 15.385 104.303 15.405V17.5891C104.303 17.6091 104.303 17.619 104.303 17.619C104.303 17.619 104.293 17.619 104.273 17.619H102.088C102.068 17.619 102.059 17.619 102.059 17.619C102.059 17.619 102.059 17.6091 102.059 17.5891V15.405C102.059 15.385 102.059 15.375 102.059 15.375C102.059 15.375 102.068 15.375 102.088 15.375ZM93.1124 18.367H95.2966C95.3165 18.367 95.3265 18.367 95.3265 18.367C95.3265 18.367 95.3265 18.377 95.3265 18.397V20.5811C95.3265 20.6011 95.3265 20.611 95.3265 20.611C95.3265 20.611 95.3165 20.611 95.2966 20.611H93.1124C93.0925 20.611 93.0825 20.611 93.0825 20.611C93.0825 20.611 93.0825 20.6011 93.0825 20.5811V18.397C93.0825 18.377 93.0825 18.367 93.0825 18.367C93.0825 18.367 93.0925 18.367 93.1124 18.367ZM96.1044 18.367H98.2886C98.3085 18.367 98.3185 18.367 98.3185 18.367C98.3185 18.367 98.3185 18.377 98.3185 18.397V20.5811C98.3185 20.6011 98.3185 20.611 98.3185 20.611C98.3185 20.611 98.3085 20.611 98.2886 20.611H96.1044C96.0845 20.611 96.0745 20.611 96.0745 20.611C96.0745 20.611 96.0745 20.6011 96.0745 20.5811V18.397C96.0745 18.377 96.0745 18.367 96.0745 18.367C96.0745 18.367 96.0845 18.367 96.1044 18.367ZM99.0964 18.367H101.281C101.301 18.367 101.311 18.367 101.311 18.367C101.311 18.367 101.311 18.377 101.311 18.397V20.5811C101.311 20.6011 101.311 20.611 101.311 20.611C101.311 20.611 101.301 20.611 101.281 20.611H99.0964C99.0765 20.611 99.0665 20.611 99.0665 20.611C99.0665 20.611 99.0665 20.6011 99.0665 20.5811V18.397C99.0665 18.377 99.0665 18.367 99.0665 18.367C99.0665 18.367 99.0765 18.367 99.0964 18.367ZM108.061 6.39904H110.245C110.265 6.39904 110.275 6.39904 110.275 6.39904C110.275 6.39904 110.275 6.40901 110.275 6.42896V8.61312C110.275 8.63307 110.275 8.64304 110.275 8.64304C110.275 8.64304 110.265 8.64304 110.245 8.64304H108.061C108.041 8.64304 108.031 8.64304 108.031 8.64304C108.031 8.64304 108.031 8.63307 108.031 8.61312V6.42896C108.031 6.40901 108.031 6.39904 108.031 6.39904C108.031 6.39904 108.041 6.39904 108.061 6.39904ZM114.045 6.39904H116.229C116.249 6.39904 116.259 6.39904 116.259 6.39904C116.259 6.39904 116.259 6.40901 116.259 6.42896V8.61312C116.259 8.63307 116.259 8.64304 116.259 8.64304C116.259 8.64304 116.249 8.64304 116.229 8.64304H114.045C114.025 8.64304 114.015 8.64304 114.015 8.64304C114.015 8.64304 114.015 8.63307 114.015 8.61312V6.42896C114.015 6.40901 114.015 6.39904 114.015 6.39904C114.015 6.39904 114.025 6.39904 114.045 6.39904ZM117.037 6.39904H119.221C119.241 6.39904 119.251 6.39904 119.251 6.39904C119.251 6.39904 119.251 6.40901 119.251 6.42896V8.61312C119.251 8.63307 119.251 8.64304 119.251 8.64304C119.251 8.64304 119.241 8.64304 119.221 8.64304H117.037C117.017 8.64304 117.007 8.64304 117.007 8.64304C117.007 8.64304 117.007 8.63307 117.007 8.61312V6.42896C117.007 6.40901 117.007 6.39904 117.007 6.39904C117.007 6.39904 117.017 6.39904 117.037 6.39904ZM108.061 9.39104H110.245C110.265 9.39104 110.275 9.39104 110.275 9.39104C110.275 9.39104 110.275 9.40101 110.275 9.42096V11.6051C110.275 11.6251 110.275 11.635 110.275 11.635C110.275 11.635 110.265 11.635 110.245 11.635H108.061C108.041 11.635 108.031 11.635 108.031 11.635C108.031 11.635 108.031 11.6251 108.031 11.6051V9.42096C108.031 9.40101 108.031 9.39104 108.031 9.39104C108.031 9.39104 108.041 9.39104 108.061 9.39104ZM111.053 9.39104H113.237C113.257 9.39104 113.267 9.39104 113.267 9.39104C113.267 9.39104 113.267 9.40101 113.267 9.42096V11.6051C113.267 11.6251 113.267 11.635 113.267 11.635C113.267 11.635 113.257 11.635 113.237 11.635H111.053C111.033 11.635 111.023 11.635 111.023 11.635C111.023 11.635 111.023 11.6251 111.023 11.6051V9.42096C111.023 9.40101 111.023 9.39104 111.023 9.39104C111.023 9.39104 111.033 9.39104 111.053 9.39104ZM120.029 9.39104H122.213C122.233 9.39104 122.243 9.39104 122.243 9.39104C122.243 9.39104 122.243 9.40101 122.243 9.42096V11.6051C122.243 11.6251 122.243 11.635 122.243 11.635C122.243 11.635 122.233 11.635 122.213 11.635H120.029C120.009 11.635 119.999 11.635 119.999 11.635C119.999 11.635 119.999 11.6251 119.999 11.6051V9.42096C119.999 9.40101 119.999 9.39104 119.999 9.39104C119.999 9.39104 120.009 9.39104 120.029 9.39104ZM108.061 12.383H110.245C110.265 12.383 110.275 12.383 110.275 12.383C110.275 12.383 110.275 12.393 110.275 12.413V14.5971C110.275 14.6171 110.275 14.627 110.275 14.627C110.275 14.627 110.265 14.627 110.245 14.627H108.061C108.041 14.627 108.031 14.627 108.031 14.627C108.031 14.627 108.031 14.6171 108.031 14.5971V12.413C108.031 12.393 108.031 12.383 108.031 12.383C108.031 12.383 108.041 12.383 108.061 12.383ZM120.029 12.383H122.213C122.233 12.383 122.243 12.383 122.243 12.383C122.243 12.383 122.243 12.393 122.243 12.413V14.5971C122.243 14.6171 122.243 14.627 122.243 14.627C122.243 14.627 122.233 14.627 122.213 14.627H120.029C120.009 14.627 119.999 14.627 119.999 14.627C119.999 14.627 119.999 14.6171 119.999 14.5971V12.413C119.999 12.393 119.999 12.383 119.999 12.383C119.999 12.383 120.009 12.383 120.029 12.383ZM108.061 15.375H110.245C110.265 15.375 110.275 15.375 110.275 15.375C110.275 15.375 110.275 15.385 110.275 15.405V17.5891C110.275 17.6091 110.275 17.619 110.275 17.619C110.275 17.619 110.265 17.619 110.245 17.619H108.061C108.041 17.619 108.031 17.619 108.031 17.619C108.031 17.619 108.031 17.6091 108.031 17.5891V15.405C108.031 15.385 108.031 15.375 108.031 15.375C108.031 15.375 108.041 15.375 108.061 15.375ZM120.029 15.375H122.213C122.233 15.375 122.243 15.375 122.243 15.375C122.243 15.375 122.243 15.385 122.243 15.405V17.5891C122.243 17.6091 122.243 17.619 122.243 17.619C122.243 17.619 122.233 17.619 122.213 17.619H120.029C120.009 17.619 119.999 17.619 119.999 17.619C119.999 17.619 119.999 17.6091 119.999 17.5891V15.405C119.999 15.385 119.999 15.375 119.999 15.375C119.999 15.375 120.009 15.375 120.029 15.375ZM108.061 18.367H110.245C110.265 18.367 110.275 18.367 110.275 18.367C110.275 18.367 110.275 18.377 110.275 18.397V20.5811C110.275 20.6011 110.275 20.611 110.275 20.611C110.275 20.611 110.265 20.611 110.245 20.611H108.061C108.041 20.611 108.031 20.611 108.031 20.611C108.031 20.611 108.031 20.6011 108.031 20.5811V18.397C108.031 18.377 108.031 18.367 108.031 18.367C108.031 18.367 108.041 18.367 108.061 18.367ZM120.029 18.367H122.213C122.233 18.367 122.243 18.367 122.243 18.367C122.243 18.367 122.243 18.377 122.243 18.397V20.5811C122.243 20.6011 122.243 20.611 122.243 20.611C122.243 20.611 122.233 20.611 122.213 20.611H120.029C120.009 20.611 119.999 20.611 119.999 20.611C119.999 20.611 119.999 20.6011 119.999 20.5811V18.397C119.999 18.377 119.999 18.367 119.999 18.367C119.999 18.367 120.009 18.367 120.029 18.367ZM128.993 6.39904H131.177C131.197 6.39904 131.207 6.39904 131.207 6.39904C131.207 6.39904 131.207 6.40901 131.207 6.42896V8.61312C131.207 8.63307 131.207 8.64304 131.207 8.64304C131.207 8.64304 131.197 8.64304 131.177 8.64304H128.993C128.973 8.64304 128.963 8.64304 128.963 8.64304C128.963 8.64304 128.963 8.63307 128.963 8.61312V6.42896C128.963 6.40901 128.963 6.39904 128.963 6.39904C128.963 6.39904 128.973 6.39904 128.993 6.39904ZM131.985 6.39904H134.169C134.189 6.39904 134.199 6.39904 134.199 6.39904C134.199 6.39904 134.199 6.40901 134.199 6.42896V8.61312C134.199 8.63307 134.199 8.64304 134.199 8.64304C134.199 8.64304 134.189 8.64304 134.169 8.64304H131.985C131.965 8.64304 131.955 8.64304 131.955 8.64304C131.955 8.64304 131.955 8.63307 131.955 8.61312V6.42896C131.955 6.40901 131.955 6.39904 131.955 6.39904C131.955 6.39904 131.965 6.39904 131.985 6.39904ZM134.977 6.39904H137.161C137.181 6.39904 137.191 6.39904 137.191 6.39904C137.191 6.39904 137.191 6.40901 137.191 6.42896V8.61312C137.191 8.63307 137.191 8.64304 137.191 8.64304C137.191 8.64304 137.181 8.64304 137.161 8.64304H134.977C134.957 8.64304 134.947 8.64304 134.947 8.64304C134.947 8.64304 134.947 8.63307 134.947 8.61312V6.42896C134.947 6.40901 134.947 6.39904 134.947 6.39904C134.947 6.39904 134.957 6.39904 134.977 6.39904ZM126.001 9.39104H128.185C128.205 9.39104 128.215 9.39104 128.215 9.39104C128.215 9.39104 128.215 9.40101 128.215 9.42096V11.6051C128.215 11.6251 128.215 11.635 128.215 11.635C128.215 11.635 128.205 11.635 128.185 11.635H126.001C125.981 11.635 125.971 11.635 125.971 11.635C125.971 11.635 125.971 11.6251 125.971 11.6051V9.42096C125.971 9.40101 125.971 9.39104 125.971 9.39104C125.971 9.39104 125.981 9.39104 126.001 9.39104ZM137.969 9.39104H140.153C140.173 9.39104 140.183 9.39104 140.183 9.39104C140.183 9.39104 140.183 9.40101 140.183 9.42096V11.6051C140.183 11.6251 140.183 11.635 140.183 11.635C140.183 11.635 140.173 11.635 140.153 11.635H137.969C137.949 11.635 137.939 11.635 137.939 11.635C137.939 11.635 137.939 11.6251 137.939 11.6051V9.42096C137.939 9.40101 137.939 9.39104 137.939 9.39104C137.939 9.39104 137.949 9.39104 137.969 9.39104ZM126.001 12.383H128.185C128.205 12.383 128.215 12.383 128.215 12.383C128.215 12.383 128.215 12.393 128.215 12.413V14.5971C128.215 14.6171 128.215 14.627 128.215 14.627C128.215 14.627 128.205 14.627 128.185 14.627H126.001C125.981 14.627 125.971 14.627 125.971 14.627C125.971 14.627 125.971 14.6171 125.971 14.5971V12.413C125.971 12.393 125.971 12.383 125.971 12.383C125.971 12.383 125.981 12.383 126.001 12.383ZM128.993 12.383H131.177C131.197 12.383 131.207 12.383 131.207 12.383C131.207 12.383 131.207 12.393 131.207 12.413V14.5971C131.207 14.6171 131.207 14.627 131.207 14.627C131.207 14.627 131.197 14.627 131.177 14.627H128.993C128.973 14.627 128.963 14.627 128.963 14.627C128.963 14.627 128.963 14.6171 128.963 14.5971V12.413C128.963 12.393 128.963 12.383 128.963 12.383C128.963 12.383 128.973 12.383 128.993 12.383ZM131.985 12.383H134.169C134.189 12.383 134.199 12.383 134.199 12.383C134.199 12.383 134.199 12.393 134.199 12.413V14.5971C134.199 14.6171 134.199 14.627 134.199 14.627C134.199 14.627 134.189 14.627 134.169 14.627H131.985C131.965 14.627 131.955 14.627 131.955 14.627C131.955 14.627 131.955 14.6171 131.955 14.5971V12.413C131.955 12.393 131.955 12.383 131.955 12.383C131.955 12.383 131.965 12.383 131.985 12.383ZM134.977 12.383H137.161C137.181 12.383 137.191 12.383 137.191 12.383C137.191 12.383 137.191 12.393 137.191 12.413V14.5971C137.191 14.6171 137.191 14.627 137.191 14.627C137.191 14.627 137.181 14.627 137.161 14.627H134.977C134.957 14.627 134.947 14.627 134.947 14.627C134.947 14.627 134.947 14.6171 134.947 14.5971V12.413C134.947 12.393 134.947 12.383 134.947 12.383C134.947 12.383 134.957 12.383 134.977 12.383ZM137.969 12.383H140.153C140.173 12.383 140.183 12.383 140.183 12.383C140.183 12.383 140.183 12.393 140.183 12.413V14.5971C140.183 14.6171 140.183 14.627 140.183 14.627C140.183 14.627 140.173 14.627 140.153 14.627H137.969C137.949 14.627 137.939 14.627 137.939 14.627C137.939 14.627 137.939 14.6171 137.939 14.5971V12.413C137.939 12.393 137.939 12.383 137.939 12.383C137.939 12.383 137.949 12.383 137.969 12.383ZM126.001 15.375H128.185C128.205 15.375 128.215 15.375 128.215 15.375C128.215 15.375 128.215 15.385 128.215 15.405V17.5891C128.215 17.6091 128.215 17.619 128.215 17.619C128.215 17.619 128.205 17.619 128.185 17.619H126.001C125.981 17.619 125.971 17.619 125.971 17.619C125.971 17.619 125.971 17.6091 125.971 17.5891V15.405C125.971 15.385 125.971 15.375 125.971 15.375C125.971 15.375 125.981 15.375 126.001 15.375ZM128.993 18.367H131.177C131.197 18.367 131.207 18.367 131.207 18.367C131.207 18.367 131.207 18.377 131.207 18.397V20.5811C131.207 20.6011 131.207 20.611 131.207 20.611C131.207 20.611 131.197 20.611 131.177 20.611H128.993C128.973 20.611 128.963 20.611 128.963 20.611C128.963 20.611 128.963 20.6011 128.963 20.5811V18.397C128.963 18.377 128.963 18.367 128.963 18.367C128.963 18.367 128.973 18.367 128.993 18.367ZM131.985 18.367H134.169C134.189 18.367 134.199 18.367 134.199 18.367C134.199 18.367 134.199 18.377 134.199 18.397V20.5811C134.199 20.6011 134.199 20.611 134.199 20.611C134.199 20.611 134.189 20.611 134.169 20.611H131.985C131.965 20.611 131.955 20.611 131.955 20.611C131.955 20.611 131.955 20.6011 131.955 20.5811V18.397C131.955 18.377 131.955 18.367 131.955 18.367C131.955 18.367 131.965 18.367 131.985 18.367ZM134.977 18.367H137.161C137.181 18.367 137.191 18.367 137.191 18.367C137.191 18.367 137.191 18.377 137.191 18.397V20.5811C137.191 20.6011 137.191 20.611 137.191 20.611C137.191 20.611 137.181 20.611 137.161 20.611H134.977C134.957 20.611 134.947 20.611 134.947 20.611C134.947 20.611 134.947 20.6011 134.947 20.5811V18.397C134.947 18.377 134.947 18.367 134.947 18.367C134.947 18.367 134.957 18.367 134.977 18.367Z" fill="#4A4A4A"/>
</svg>
